HIERARCHY
ROOT Hips
{
	OFFSET 0.000000 0.000000 0.000000
	CHANNELS 6 Xposition Yposition Zposition Xrotation Yrotation Zrotation
	JOINT LeftUpLeg_virtual
	{
		OFFSET 0.000000 0.000000 0.000000
		CHANNELS 3 Xrotation Yrotation Zrotation
		JOINT LeftUpLeg
		{
			OFFSET 11.394100 -6.187798 -0.413800
			CHANNELS 3 Xrotation Yrotation Zrotation
			JOINT LeftLeg
			{
				OFFSET 0.430247 -32.302673 3.732800
				CHANNELS 3 Xrotation Yrotation Zrotation
				JOINT LeftFoot
				{
					OFFSET -0.430247 -48.264931 -6.423300
					CHANNELS 3 Xrotation Yrotation Zrotation
					JOINT LeftToeBase
					{
						OFFSET 4.230900 -16.068199 23.438400
						CHANNELS 3 Xrotation Yrotation Zrotation
						JOINT LeftToe_End
						{
							OFFSET 4.510700 0.695400 19.974600
							CHANNELS 3 Xrotation Yrotation Zrotation
							End Site
							{
								OFFSET 0 0 0
							}
						}
					}
				}
			}
		}
	}
	JOINT RightUpLeg_virtual
	{
		OFFSET 0.000000 0.000000 0.000000
		CHANNELS 3 Xrotation Yrotation Zrotation
		JOINT RightUpLeg
		{
			OFFSET -11.333700 -6.187798 -0.413800
			CHANNELS 3 Xrotation Yrotation Zrotation
			JOINT RightLeg
			{
				OFFSET -0.430392 -32.302628 3.733000
				CHANNELS 3 Xrotation Yrotation Zrotation
				JOINT RightFoot
				{
					OFFSET 0.430392 -48.264973 -6.423500
					CHANNELS 3 Xrotation Yrotation Zrotation
					JOINT RightToeBase
					{
						OFFSET -4.230900 -16.068199 23.438400
						CHANNELS 3 Xrotation Yrotation Zrotation
						JOINT RightToe_End
						{
							OFFSET -4.510700 0.695400 19.974600
							CHANNELS 3 Xrotation Yrotation Zrotation
							End Site
							{
								OFFSET 0 0 0
							}
						}
					}
				}
			}
		}
	}
	JOINT Spine_virtual
	{
		OFFSET 0.000000 0.000000 0.000000
		CHANNELS 3 Xrotation Yrotation Zrotation
		JOINT Spine
		{
			OFFSET -0.002400 12.777504 0.315300
			CHANNELS 3 Xrotation Yrotation Zrotation
			JOINT Spine1
			{
				OFFSET -0.002067 5.816869 0.032633
				CHANNELS 3 Xrotation Yrotation Zrotation
				JOINT Spine1_split
				{
					OFFSET -0.002067 5.816869 0.032633
					CHANNELS 3 Xrotation Yrotation Zrotation
					JOINT Spine2
					{
						OFFSET -0.002067 5.816869 0.032633
						CHANNELS 3 Xrotation Yrotation Zrotation
						JOINT Neck_virtual
						{
							OFFSET 0.000000 0.000000 0.000000
							CHANNELS 3 Xrotation Yrotation Zrotation
							JOINT Neck
							{
								OFFSET -0.003700 21.199493 -0.826900
								CHANNELS 3 Xrotation Yrotation Zrotation
								JOINT Head
								{
									OFFSET 0.000000 20.442200 4.834800
									CHANNELS 3 Xrotation Yrotation Zrotation
									JOINT HeadTop_End
									{
										OFFSET 0.000000 34.668396 4.968400
										CHANNELS 3 Xrotation Yrotation Zrotation
										End Site
										{
											OFFSET 0 0 0
										}
									}
								}
							}
						}
						JOINT LeftShoulder_virtual
						{
							OFFSET 0.000000 0.000000 0.000000
							CHANNELS 3 Xrotation Yrotation Zrotation
							JOINT LeftShoulder
							{
								OFFSET 3.288150 8.794197 -1.372250
								CHANNELS 3 Xrotation Yrotation Zrotation
								JOINT LeftShoulder_split
								{
									OFFSET 3.288150 8.794197 -1.372250
									CHANNELS 3 Xrotation Yrotation Zrotation
									JOINT LeftArm
									{
										OFFSET 11.953299 -2.279007 -0.146200
										CHANNELS 3 Xrotation Yrotation Zrotation
										JOINT LeftForeArm
										{
											OFFSET 18.448900 0.000000 0.000000
											CHANNELS 3 Xrotation Yrotation Zrotation
											JOINT LeftHand
											{
												OFFSET 29.527798 0.000000 0.000000
												CHANNELS 3 Xrotation Yrotation Zrotation
												End Site
												{
													OFFSET 0 0 0
												}
											}
										}
									}
								}
							}
						}
						JOINT RightShoulder_virtual
						{
							OFFSET 0.000000 0.000000 0.000000
							CHANNELS 3 Xrotation Yrotation Zrotation
							JOINT RightShoulder
							{
								OFFSET -3.249400 8.794197 -1.372250
								CHANNELS 3 Xrotation Yrotation Zrotation
								JOINT RightShoulder_split
								{
									OFFSET -3.249400 8.794197 -1.372250
									CHANNELS 3 Xrotation Yrotation Zrotation
									JOINT RightArm
									{
										OFFSET -11.953299 -2.279007 -0.146200
										CHANNELS 3 Xrotation Yrotation Zrotation
										JOINT RightForeArm
										{
											OFFSET -18.448900 0.000000 0.000000
											CHANNELS 3 Xrotation Yrotation Zrotation
											JOINT RightHand
											{
												OFFSET -29.527802 0.000000 0.000000
												CHANNELS 3 Xrotation Yrotation Zrotation
												End Site
												{
													OFFSET 0 0 0
												}
											}
										}
									}
								}
							}
						}
					}
				}
			}
		}
	}
}
MOTION
Frames: 7
Frame Time: 0.03333333
-0.661412 98.778015 0.075508 0.000000 0.000000 0.000000 -19.792409 -82.301806 -21.114102 -19.517742 14.491971 9.797185 27.120026 -2.833531 4.839549 -6.162189 0.945408 -6.801611 -0.000046 -0.000003 -0.000000 0.000000 0.000000 0.000000 -19.792409 -82.301806 -21.114102 -14.361091 -23.201393 -8.281732 22.733178 8.616784 -8.693115 -6.798673 -1.114618 10.349069 -0.001927 0.000011 -0.000002 0.000000 0.000000 0.000000 -19.792409 -82.301806 -21.114102 2.270767 0.115994 0.177129 4.588851 0.048045 1.587649 0.000000 0.000000 0.000000 0.000000 0.000000 0.000000 4.566498 0.058995 1.631778 -6.449451 9.163151 -4.228991 1.306331 37.856658 -3.127863 0.000000 0.000000 0.000000 4.566498 0.058995 1.631778 -0.232473 4.637865 -1.359674 0.000000 0.000000 0.000000 25.122192 -77.231244 -42.206283 -0.000006 -14.145790 -0.000001 0.000000 0.000000 0.000000 4.566498 0.058995 1.631778 1.612993 4.329180 7.043630 0.000000 0.000000 0.000000 8.595131 25.593750 60.579530 -0.000001 32.803664 0.000004 0.000000 0.000000 0.000000 
-0.673254 98.793427 0.067543 0.000000 0.000000 0.000000 -20.024725 -82.283467 -21.343064 -19.438379 14.506340 9.774694 27.055354 -2.830806 4.857545 -6.140255 0.948323 -6.808742 -0.000049 0.000034 -0.000008 0.000000 0.000000 0.000000 -20.024725 -82.283467 -21.343064 -14.267388 -23.224545 -8.268480 22.662931 8.630596 -8.686675 -6.784939 -1.116218 10.347528 -0.001973 -0.000000 0.000002 0.000000 0.000000 0.000000 -20.024725 -82.283467 -21.343064 2.259166 0.094593 0.185843 4.568351 0.010020 1.625759 0.000000 0.000000 0.000000 0.000000 0.000000 0.000000 4.545687 0.020625 1.669543 -6.358688 9.200897 -4.344189 1.308285 37.902547 -3.127765 0.000000 0.000000 0.000000 4.545687 0.020625 1.669543 -0.236516 4.731574 -1.616344 0.000000 0.000000 0.000000 28.225016 -77.569092 -39.068166 -0.000006 -14.159484 -0.000002 0.000000 0.000000 0.000000 4.545687 0.020625 1.669543 1.625859 4.410177 6.848792 0.000000 0.000000 0.000000 8.546699 25.709175 60.700991 -0.000002 32.649670 -0.000005 0.000000 0.000000 0.000000 
-0.683690 98.810097 0.061043 0.000000 0.000000 0.000000 -20.210026 -82.259397 -21.542797 -19.359522 14.463603 9.772620 26.995214 -2.812540 4.856818 -6.124198 0.948570 -6.821828 -0.000026 0.000015 0.000000 0.000000 0.000000 0.000000 -20.210026 -82.259397 -21.542797 -14.155458 -23.229504 -8.246537 22.570382 8.622740 -8.645124 -6.762560 -1.117200 10.337262 -0.002027 -0.000001 -0.000002 0.000000 0.000000 0.000000 -20.210026 -82.259397 -21.542797 2.243730 0.066129 0.215669 4.538630 -0.042548 1.674178 0.000000 0.000000 0.000000 0.000000 0.000000 0.000000 4.515267 -0.031856 1.717975 -6.262549 9.243670 -4.465036 1.306198 37.967775 -3.122502 0.000000 0.000000 0.000000 4.515267 -0.031856 1.717975 -0.241921 4.857624 -1.946194 0.000000 0.000000 0.000000 31.985967 -77.874047 -35.281417 -0.000004 -14.201004 0.000010 0.000000 0.000000 0.000000 4.515267 -0.031856 1.717975 1.642505 4.513231 6.629211 0.000000 0.000000 0.000000 8.509101 25.847485 60.828463 0.000004 32.462185 0.000006 0.000000 0.000000 0.000000 
-0.679781 98.823715 0.051128 0.000000 0.000000 0.000000 -20.238837 -82.228675 -21.592801 -19.313465 14.375581 9.761001 26.946734 -2.765960 4.866952 -6.099885 0.947589 -6.845874 -0.000053 0.000000 -0.000002 0.000000 0.000000 0.000000 -20.238837 -82.228675 -21.592801 -14.078056 -23.234589 -8.218908 22.494748 8.599855 -8.606851 -6.737444 -1.119039 10.319839 -0.002110 0.000017 0.000001 0.000000 0.000000 0.000000 -20.238837 -82.228675 -21.592801 2.235341 0.042163 0.263108 4.519639 -0.089366 1.726252 0.000000 0.000000 0.000000 0.000000 0.000000 0.000000 4.495333 -0.077923 1.770642 -6.186664 9.287367 -4.580750 1.286597 38.041749 -3.116077 0.000000 0.000000 0.000000 4.495333 -0.077923 1.770642 -0.246492 4.979582 -2.258060 0.000000 0.000000 0.000000 35.894830 -78.150929 -31.336901 0.000004 -14.217764 0.000021 0.000000 0.000000 0.000000 4.495333 -0.077923 1.770642 1.659760 4.618662 6.455626 0.000000 0.000000 0.000000 8.485919 25.881245 60.941065 0.000010 32.359561 0.000004 0.000000 0.000000 0.000000 
-0.635797 98.822495 0.022636 0.000000 0.000000 0.000000 -20.046786 -82.219816 -21.416103 -19.366045 14.288488 9.731595 26.940974 -2.670619 4.920327 -6.052591 0.948221 -6.891940 -0.000066 -0.000002 0.000001 0.000000 0.000000 0.000000 -20.046786 -82.219816 -21.416103 -14.177436 -23.202267 -8.157686 22.600652 8.517611 -8.658159 -6.752595 -1.112272 10.219652 -0.002264 -0.000020 0.000002 0.000000 0.000000 0.000000 -20.046786 -82.219816 -21.416103 2.247043 0.040948 0.308432 4.537762 -0.095028 1.771960 0.000000 0.000000 0.000000 0.000000 0.000000 0.000000 4.512691 -0.082132 1.817279 -6.156677 9.325414 -4.676049 1.213319 38.112630 -3.117113 0.000000 0.000000 0.000000 4.512691 -0.082132 1.817279 -0.248985 5.035879 -2.392461 0.000000 0.000000 0.000000 39.219018 -78.480718 -27.926330 -0.000012 -14.133330 -0.000019 0.000000 0.000000 0.000000 4.512691 -0.082132 1.817279 1.673019 4.701749 6.407464 0.000000 0.000000 0.000000 8.466743 25.643966 61.012502 -0.000018 32.534288 0.000022 0.000000 0.000000 0.000000 
-0.519951 98.794838 -0.037651 0.000000 0.000000 0.000000 -19.799030 -82.304278 -21.162288 -19.566832 14.309112 9.697988 27.007068 -2.535173 5.046615 -5.975148 0.951062 -6.967275 0.000003 0.000000 0.000000 0.000000 0.000000 0.000000 -19.799030 -82.304278 -21.162288 -14.519307 -23.026579 -8.031942 22.945740 8.346314 -8.844677 -6.798133 -1.103465 10.061404 -0.002495 0.000000 0.000000 0.000000 0.000000 0.000000 -19.799030 -82.304278 -21.162288 2.288247 0.081477 0.311979 4.616215 -0.019703 1.794978 0.000000 0.000000 0.000000 0.000000 0.000000 0.000000 4.591257 -0.005120 1.840726 -6.189005 9.350508 -4.734789 1.020067 38.175041 -3.126557 0.000000 0.000000 0.000000 4.591257 -0.005120 1.840726 -0.250648 5.006629 -2.274218 0.000000 0.000000 0.000000 41.725732 -78.911307 -25.218570 0.000000 -14.003582 -0.000005 0.000000 0.000000 0.000000 4.591257 -0.005120 1.840726 1.675897 4.724613 6.488811 0.000000 0.000000 0.000000 8.406036 25.091262 61.032207 -0.000008 33.144893 -0.000001 0.000000 0.000000 0.000000 
-0.304525 98.746330 -0.131798 0.000000 0.000000 0.000000 -20.053516 -82.586112 -21.365837 -19.865347 14.604650 9.659368 27.101617 -2.423506 5.290628 -5.856474 0.952441 -7.076309 -0.000016 0.000010 -0.000003 0.000000 0.000000 0.000000 -20.053516 -82.586112 -21.365837 -15.124527 -22.611304 -7.800602 23.562349 8.101403 -9.212516 -6.849968 -1.088780 9.803575 -0.002822 -0.000031 -0.000001 0.000000 0.000000 0.000000 -20.053516 -82.586112 -21.365837 2.359174 0.172453 0.220539 4.764471 0.161644 1.769683 0.000000 0.000000 0.000000 0.000000 0.000000 0.000000 4.741217 0.176967 1.814186 -6.286128 9.357665 -4.745711 0.617472 38.234774 -3.127699 0.000000 0.000000 0.000000 4.741217 0.176967 1.814186 -0.254393 4.960595 -2.026237 0.000000 0.000000 0.000000 43.727657 -79.241054 -22.827875 -0.000003 -14.194359 0.000005 0.000000 0.000000 0.000000 4.741217 0.176967 1.814186 1.661293 4.637929 6.632721 0.000000 0.000000 0.000000 8.241801 24.398814 60.982463 -0.000003 34.229213 0.000003 0.000000 0.000000 0.000000 
